<svg width="316" height="274" viewBox="0 0 316 274" fill="none" xmlns="http://www.w3.org/2000/svg">
<path d="M196.797 69.0147C198.253 63.5796 205.965 63.5795 207.422 69.0147L208.172 71.8131C218.965 112.089 250.46 143.526 290.756 154.244L293.683 155.023C299.131 156.472 299.131 164.204 293.683 165.653L290.756 166.431C250.46 177.149 218.965 208.586 208.172 248.862L207.422 251.661C205.965 257.096 198.253 257.096 196.797 251.661L196.047 248.862C185.254 208.586 153.759 177.149 113.463 166.431L110.536 165.653C105.088 164.204 105.088 156.472 110.536 155.023L113.463 154.244C153.759 143.526 185.254 112.089 196.047 71.8131L196.797 69.0147Z" fill="#F1F3F4" stroke="black"/>
<path d="M128.865 21.7566C130.321 16.3215 138.034 16.3214 139.49 21.7566L140.151 24.2223C150.944 64.4984 182.439 95.9351 222.735 106.653L225.329 107.343C230.777 108.792 230.777 116.524 225.329 117.973L222.735 118.663C182.439 129.381 150.944 160.818 140.151 201.094L139.49 203.559C138.034 208.995 130.321 208.995 128.865 203.559L128.204 201.094C117.411 160.818 85.916 129.381 45.6199 118.663L43.0265 117.973C37.5782 116.524 37.5781 108.792 43.0265 107.343L45.6199 106.653C85.916 95.9351 117.411 64.4984 128.204 24.2224L128.865 21.7566Z" stroke="black"/>
<path d="M222.265 18.2087C222.433 16.5698 224.824 16.5698 224.992 18.2087C225.783 25.9325 231.901 32.0471 239.627 32.8197C241.265 32.9835 241.265 35.3708 239.627 35.5346C231.901 36.3072 225.783 42.4218 224.992 50.1456C224.824 51.7845 222.433 51.7844 222.265 50.1456C221.473 42.4218 215.356 36.3072 207.63 35.5346C205.992 35.3708 205.992 32.9835 207.63 32.8197C215.356 32.0471 221.473 25.9325 222.265 18.2087Z" fill="#F1F3F4" stroke="black"/>
<path d="M20.4627 67.5457C20.5413 66.7851 21.6527 66.7851 21.7313 67.5457C22.2249 72.3249 26.0138 76.1114 30.7965 76.5859C31.5552 76.6612 31.5552 77.7671 30.7965 77.8424C26.0138 78.3168 22.2249 82.1034 21.7313 86.8825C21.6527 87.6431 20.5413 87.6431 20.4627 86.8825C19.9691 82.1034 16.1802 78.3168 11.3975 77.8424C10.6388 77.7671 10.6388 76.6612 11.3975 76.5859C16.1802 76.1114 19.9691 72.3249 20.4627 67.5457Z" fill="#F1F3F4" stroke="black"/>
</svg>
